<?xml version="1.0" encoding="UTF-8" standalone="no"?><!DOCTYPE svg PUBLIC "-//W3C//DTD SVG 1.1//EN" "http://www.w3.org/Graphics/SVG/1.1/DTD/svg11.dtd"><svg width="100%" height="100%" viewBox="0 0 700 186" version="1.1" xmlns="http://www.w3.org/2000/svg" xmlns:xlink="http://www.w3.org/1999/xlink" xml:space="preserve" xmlns:serif="http://www.serif.com/" style="fill-rule:evenodd;clip-rule:evenodd;stroke-linejoin:round;stroke-miterlimit:1.41421;"><path d="M9.7,5l16.4,0l0,117l65,0l0,14.2l-81.4,0l0,-131.2Z" style="fill-rule:nonzero;"/><path d="M114.9,87.8c0,-8.133 1.3,-15.367 3.9,-21.7c2.6,-6.333 6.1,-11.7 10.5,-16.1c4.4,-4.4 9.5,-7.733 15.3,-10c5.8,-2.267 11.9,-3.4 18.3,-3.4c6.4,0 12.5,1.133 18.3,3.4c5.8,2.267 10.9,5.6 15.3,10c4.4,4.4 7.9,9.767 10.5,16.1c2.6,6.333 3.9,13.567 3.9,21.7c0,8 -1.3,15.167 -3.9,21.5c-2.6,6.333 -6.1,11.667 -10.5,16c-4.4,4.333 -9.5,7.633 -15.3,9.9c-5.8,2.267 -11.9,3.4 -18.3,3.4c-6.4,0 -12.5,-1.133 -18.3,-3.4c-5.8,-2.267 -10.9,-5.567 -15.3,-9.9c-4.4,-4.333 -7.9,-9.667 -10.5,-16c-2.6,-6.333 -3.9,-13.5 -3.9,-21.5Zm17,0c0,5.6 0.733,10.667 2.2,15.2c1.467,4.533 3.567,8.433 6.3,11.7c2.733,3.267 6,5.8 9.8,7.6c3.8,1.8 8.033,2.7 12.7,2.7c4.667,0 8.9,-0.9 12.7,-2.7c3.8,-1.8 7.067,-4.333 9.8,-7.6c2.733,-3.267 4.833,-7.167 6.3,-11.7c1.467,-4.533 2.2,-9.6 2.2,-15.2c0,-5.6 -0.733,-10.7 -2.2,-15.3c-1.467,-4.6 -3.567,-8.567 -6.3,-11.9c-2.733,-3.333 -6,-5.9 -9.8,-7.7c-3.8,-1.8 -8.033,-2.7 -12.7,-2.7c-4.667,0 -8.9,0.9 -12.7,2.7c-3.8,1.8 -7.067,4.367 -9.8,7.7c-2.733,3.333 -4.833,7.3 -6.3,11.9c-1.467,4.6 -2.2,9.7 -2.2,15.3Z" style="fill-rule:nonzero;"/><path d="M251.5,152.4c0,5.067 2.7,9.2 8.1,12.4c5.4,3.2 13.3,4.8 23.7,4.8c5.6,0 10.667,-0.567 15.2,-1.7c4.533,-1.133 8.4,-2.633 11.6,-4.5c3.2,-1.867 5.633,-4 7.3,-6.4c1.667,-2.4 2.5,-4.867 2.5,-7.4c0,-4.667 -1.833,-7.8 -5.5,-9.4c-3.667,-1.6 -9.233,-2.4 -16.7,-2.4l-19,0c-2.8,0 -5.433,-0.1 -7.9,-0.3c-2.467,-0.2 -4.767,-0.633 -6.9,-1.3c-4.667,2.533 -7.9,5.167 -9.7,7.9c-1.8,2.733 -2.7,5.5 -2.7,8.3Zm-14.2,1.6c0,-3.867 1.367,-7.667 4.1,-11.4c2.733,-3.733 6.7,-7.133 11.9,-10.2l0,-0.8c-2.667,-1.467 -5,-3.467 -7,-6c-2,-2.533 -3,-5.867 -3,-10c0,-3.067 1,-6.233 3,-9.5c2,-3.267 4.867,-6.167 8.6,-8.7l0,-0.8c-3.333,-2.533 -6.167,-5.9 -8.5,-10.1c-2.333,-4.2 -3.5,-9.233 -3.5,-15.1c0,-5.333 1.033,-10.133 3.1,-14.4c2.067,-4.267 4.833,-7.9 8.3,-10.9c3.467,-3 7.5,-5.333 12.1,-7c4.6,-1.667 9.5,-2.5 14.7,-2.5c5.333,0 10.133,0.8 14.4,2.4l40.2,0l0,12.6l-26,0c2.267,2.4 4.333,5.333 6.2,8.8c1.867,3.467 2.8,7.333 2.8,11.6c0,5.2 -0.967,9.867 -2.9,14c-1.933,4.133 -4.6,7.633 -8,10.5c-3.4,2.867 -7.4,5.067 -12,6.6c-4.6,1.533 -9.5,2.3 -14.7,2.3c-2.533,0 -5.233,-0.3 -8.1,-0.9c-2.867,-0.6 -5.633,-1.5 -8.3,-2.7c-5.067,3.2 -7.6,6.933 -7.6,11.2c0,3.867 1.767,6.7 5.3,8.5c3.533,1.8 8.5,2.7 14.9,2.7l21.8,0c12.533,0 21.833,1.733 27.9,5.2c6.067,3.467 9.1,9.333 9.1,17.6c0,4.533 -1.267,8.867 -3.8,13c-2.533,4.133 -6.133,7.733 -10.8,10.8c-4.667,3.067 -10.333,5.533 -17,7.4c-6.667,1.867 -14.133,2.8 -22.4,2.8c-14.267,0 -25.3,-2.333 -33.1,-7c-7.8,-4.667 -11.7,-11.333 -11.7,-20Zm43.8,-59.6c6.267,0 11.567,-2.067 15.9,-6.2c4.333,-4.133 6.5,-9.733 6.5,-16.8c0,-3.333 -0.6,-6.4 -1.8,-9.2c-1.2,-2.8 -2.8,-5.2 -4.8,-7.2c-2,-2 -4.367,-3.567 -7.1,-4.7c-2.733,-1.133 -5.633,-1.7 -8.7,-1.7c-3.067,0 -5.967,0.567 -8.7,1.7c-2.733,1.133 -5.1,2.7 -7.1,4.7c-2,2 -3.6,4.4 -4.8,7.2c-1.2,2.8 -1.8,5.867 -1.8,9.2c0,7.067 2.2,12.667 6.6,16.8c4.4,4.133 9.667,6.2 15.8,6.2Z" style="fill-rule:nonzero;"/><path d="M371.5,152.4c0,5.067 2.7,9.2 8.1,12.4c5.4,3.2 13.3,4.8 23.7,4.8c5.6,0 10.667,-0.567 15.2,-1.7c4.533,-1.133 8.4,-2.633 11.6,-4.5c3.2,-1.867 5.633,-4 7.3,-6.4c1.667,-2.4 2.5,-4.867 2.5,-7.4c0,-4.667 -1.833,-7.8 -5.5,-9.4c-3.667,-1.6 -9.233,-2.4 -16.7,-2.4l-19,0c-2.8,0 -5.433,-0.1 -7.9,-0.3c-2.467,-0.2 -4.767,-0.633 -6.9,-1.3c-4.667,2.533 -7.9,5.167 -9.7,7.9c-1.8,2.733 -2.7,5.5 -2.7,8.3Zm-14.2,1.6c0,-3.867 1.367,-7.667 4.1,-11.4c2.733,-3.733 6.7,-7.133 11.9,-10.2l0,-0.8c-2.667,-1.467 -5,-3.467 -7,-6c-2,-2.533 -3,-5.867 -3,-10c0,-3.067 1,-6.233 3,-9.5c2,-3.267 4.867,-6.167 8.6,-8.7l0,-0.8c-3.333,-2.533 -6.167,-5.9 -8.5,-10.1c-2.333,-4.2 -3.5,-9.233 -3.5,-15.1c0,-5.333 1.033,-10.133 3.1,-14.4c2.067,-4.267 4.833,-7.9 8.3,-10.9c3.467,-3 7.5,-5.333 12.1,-7c4.6,-1.667 9.5,-2.5 14.7,-2.5c5.333,0 10.133,0.8 14.4,2.4l40.2,0l0,12.6l-26,0c2.267,2.4 4.333,5.333 6.2,8.8c1.867,3.467 2.8,7.333 2.8,11.6c0,5.2 -0.967,9.867 -2.9,14c-1.933,4.133 -4.6,7.633 -8,10.5c-3.4,2.867 -7.4,5.067 -12,6.6c-4.6,1.533 -9.5,2.3 -14.7,2.3c-2.533,0 -5.233,-0.3 -8.1,-0.9c-2.867,-0.6 -5.633,-1.5 -8.3,-2.7c-5.067,3.2 -7.6,6.933 -7.6,11.2c0,3.867 1.767,6.7 5.3,8.5c3.533,1.8 8.5,2.7 14.9,2.7l21.8,0c12.533,0 21.833,1.733 27.9,5.2c6.067,3.467 9.1,9.333 9.1,17.6c0,4.533 -1.267,8.867 -3.8,13c-2.533,4.133 -6.133,7.733 -10.8,10.8c-4.667,3.067 -10.333,5.533 -17,7.4c-6.667,1.867 -14.133,2.8 -22.4,2.8c-14.267,0 -25.3,-2.333 -33.1,-7c-7.8,-4.667 -11.7,-11.333 -11.7,-20Zm43.8,-59.6c6.267,0 11.567,-2.067 15.9,-6.2c4.333,-4.133 6.5,-9.733 6.5,-16.8c0,-3.333 -0.6,-6.4 -1.8,-9.2c-1.2,-2.8 -2.8,-5.2 -4.8,-7.2c-2,-2 -4.367,-3.567 -7.1,-4.7c-2.733,-1.133 -5.633,-1.7 -8.7,-1.7c-3.067,0 -5.967,0.567 -8.7,1.7c-2.733,1.133 -5.1,2.7 -7.1,4.7c-2,2 -3.6,4.4 -4.8,7.2c-1.2,2.8 -1.8,5.867 -1.8,9.2c0,7.067 2.2,12.667 6.6,16.8c4.4,4.133 9.667,6.2 15.8,6.2Z" style="fill-rule:nonzero;"/><path d="M476.7,87.8c0,-8 1.4,-15.167 4.2,-21.5c2.8,-6.333 6.5,-11.7 11.1,-16.1c4.6,-4.4 9.867,-7.767 15.8,-10.1c5.933,-2.333 12.033,-3.5 18.3,-3.5c6.933,0 13.133,1.1 18.6,3.3c5.467,2.2 10.1,5.3 13.9,9.3c3.8,4 6.7,8.8 8.7,14.4c2,5.6 3,11.8 3,18.6c0,1.733 -0.033,3.433 -0.1,5.1c-0.067,1.667 -0.233,3.1 -0.5,4.3l-76,0c0.133,5.2 1.167,9.867 3.1,14c1.933,4.133 4.533,7.667 7.8,10.6c3.267,2.933 7.133,5.2 11.6,6.8c4.467,1.6 9.367,2.4 14.7,2.4c5.733,0 10.967,-0.8 15.7,-2.4c4.733,-1.6 9.367,-3.8 13.9,-6.6l5.8,10.8c-4.8,3.067 -10.267,5.733 -16.4,8c-6.133,2.267 -13.133,3.4 -21,3.4c-7.2,0 -13.967,-1.167 -20.3,-3.5c-6.333,-2.333 -11.867,-5.667 -16.6,-10c-4.733,-4.333 -8.467,-9.633 -11.2,-15.9c-2.733,-6.267 -4.1,-13.4 -4.1,-21.4Zm78.4,-8c0,-9.733 -2.533,-17.2 -7.6,-22.4c-5.067,-5.2 -12.133,-7.8 -21.2,-7.8c-4,0 -7.833,0.667 -11.5,2c-3.667,1.333 -6.967,3.3 -9.9,5.9c-2.933,2.6 -5.4,5.767 -7.4,9.5c-2,3.733 -3.333,8 -4,12.8l61.6,0Z" style="fill-rule:nonzero;"/><path d="M612.1,39l13.6,0l1.4,23l0.6,0c5.067,-7.867 11.3,-14.067 18.7,-18.6c7.4,-4.533 15.633,-6.8 24.7,-6.8c3.6,0 6.933,0.3 10,0.9c3.067,0.6 6.133,1.633 9.2,3.1l-3.8,14.2c-3.467,-1.2 -6.367,-2.067 -8.7,-2.6c-2.333,-0.533 -5.433,-0.8 -9.3,-0.8c-7.333,0 -14.367,2.1 -21.1,6.3c-6.733,4.2 -13.033,11.367 -18.9,21.5l0,57l-16.4,0l0,-97.2Z" style="fill-rule:nonzero;"/></svg>